<svg id="Layer_1" data-name="Layer 1" xmlns="http://www.w3.org/2000/svg" xmlns:xlink="http://www.w3.org/1999/xlink" viewBox="0 0 200 44">
  <defs>
    <style>
      .cls-1 {
        fill: none;
      }

      .cls-2 {
        fill: #1a1744;
      }

      .cls-3 {
        clip-path: url(#clip-path);
      }

      .cls-4 {
        fill: #fff;
        fill-rule: evenodd;
      }

      .cls-5 {
        fill: #d58f76;
      }
    </style>
    <clipPath id="clip-path" transform="translate(0 -6)">
      <rect class="cls-1" x="3" y="9" width="38" height="38"/>
    </clipPath>
  </defs>
  <title>logo</title>
  <rect class="cls-2" width="44" height="44"/>
  <g class="cls-3">
    <path class="cls-4" d="M12.9544,25.7741a1.10917,1.10917,0,0,1-1.1042.7811,1.21772,1.21772,0,0,1-1.1713-1.1713,1.17178,1.17178,0,0,1,1.1713-1.1712H32.1498a1.1714,1.1714,0,0,1,1.1713,1.1712,1.21781,1.21781,0,0,1-1.1713,1.1713,1.10848,1.10848,0,0,1-1.1042-.7811h1.1049a.3902.3902,0,1,0,0-.7804H11.8502a.3902.3902,0,0,0,0,.7804Zm-1.1042-3.1229a2.733,2.733,0,0,0-2.73275,2.7327,2.77691,2.77691,0,0,0,2.73275,2.7327,2.6835,2.6835,0,0,0,2.7048-2.3425H29.4457a2.68343,2.68343,0,0,0,2.7048,2.3425,2.77605,2.77605,0,0,0,2.7327-2.7327,2.73261,2.73261,0,0,0-2.7327-2.7327Zm15.6146-1.5615a.78319.78319,0,0,1-.7804.7811H17.3156a.78105.78105,0,0,1,0-1.5621H26.685A.783.783,0,0,1,27.4648,21.0897Zm-1.2147-4.9369.286.8847.9293-.0019-.7531.5447.2891.884-.7513-.5478-.7512.5478.2891-.884-.7532-.5447.93.0019Zm-8.5002,0,.2853.8847.93-.0019-.7532.5447.2891.884-.7512-.5478-.7513.5478.2885-.884-.7532-.5447.9294.0019ZM22,15.3389l.4864,1.5075,1.5838-.0025-1.283.9287.492,1.5063-1.2798-.9337-1.2798.9337.4925-1.5063-1.2835-.9287,1.5838.0025ZM18.096,45.4385V28.1166h-.7804a.78105.78105,0,0,1,0-1.5621H26.685a.78105.78105,0,0,1,0,1.5621h-.781V45.4385H39.4385V10.5615H4.56147V45.4379H18.096Zm1.5615-16.346V47H3V9H41V47H24.3419V29.0925a.97585.97585,0,1,0-1.9517,0V47h-.781V29.0925a.97585.97585,0,1,0-1.9517,0Z" transform="translate(0 -6)"/>
  </g>
  <path class="cls-2" d="M67.93,10.81358v.57a4.65285,4.65285,0,0,0-1.4821.228,1.0271,1.0271,0,0,0-.65555.684,5.018,5.018,0,0,0-.171,1.53911v14.251a5.52151,5.52151,0,0,0,.14251,1.4536,1.02608,1.02608,0,0,0,.627.65555,5.09231,5.09231,0,0,0,1.3681.14251h1.85263a5.38587,5.38587,0,0,0,2.05214-.342,3.52689,3.52689,0,0,0,1.4251-1.02607,4.81853,4.81853,0,0,0,.88355-1.76712,15.87856,15.87856,0,0,0,.48454-2.53667h.65555q-.08551.912-.08551,2.39416,0,.57.0285,1.68162.057,1.083.171,2.25165-1.45359-.057-3.27772-.057-1.82418-.02856-3.24923-.0285H67.018q-1.02607,0-2.22316.0285-1.16851,0-2.39416.0285-1.19709,0-2.30866.0285v-.57a5.648,5.648,0,0,0,1.4536-.228.95131.95131,0,0,0,.627-.684,5.188,5.188,0,0,0,.171-1.5391v-14.137a5.018,5.018,0,0,0-.171-1.53911.9532.9532,0,0,0-.65555-.684,4.26119,4.26119,0,0,0-1.4251-.228v-.57q.6555.02856,1.68162.057,1.05462.02855,2.25165.0285,1.083,0,2.13765-.0285Q67.24594,10.842,67.93,10.81358Zm18.6807-.114,6.95448,17.89924a3.069,3.069,0,0,0,.91206,1.4251,2.03721,2.03721,0,0,0,.99757.399v.57q-.684-.057-1.62461-.057-.912-.02856-1.85263-.0285-1.19707,0-2.22315.0285-1.02607,0-1.65312.057v-.57a2.7117,2.7117,0,0,0,1.82413-.48453q.399-.45609-.171-1.90963l-5.13036-13.852.456-.513L80.36881,26.03363a9.356,9.356,0,0,0-.627,2.13765,2.59111,2.59111,0,0,0,.14251,1.33959,1.42706,1.42706,0,0,0,.85506.684,5.28251,5.28251,0,0,0,1.48211.228v.57q-.85507-.057-1.73862-.057-.85508-.02856-1.62461-.0285-.68406,0-1.22559.0285a7.15241,7.15241,0,0,0-.94057.057v-.57a2.67149,2.67149,0,0,0,1.19708-.71254,5.5112,5.5112,0,0,0,1.14009-1.93814l6.61245-17.07268h.96907Zm2.99271,12.08484v.57H81.10986l.285-.57Zm31.5703-11.97083v.57a2.87861,2.87861,0,0,0-1.22559.76955,4.64823,4.64823,0,0,0-1.11157,2.02364L113.59223,31.107h-.96907l-6.04242-17.98474a2.62853,2.62853,0,0,0-.79806-1.36809,1.52011,1.52011,0,0,0-.82655-.37053v-.57q.59855.02856,1.4821.057.88407.02855,1.71012.0285,1.16808,0,2.16615-.0285,1.02606-.02856,1.62461-.057v.57a4.98022,4.98022,0,0,0-1.36809.19951.74957.74957,0,0,0-.57.627,4.30081,4.30081,0,0,0,.285,1.5676l4.18978,12.88289-.48453.62705,3.59125-11.31528a8.12075,8.12075,0,0,0,.513-2.73619,1.583,1.583,0,0,0-.65554-1.3966,3.17016,3.17016,0,0,0-1.76712-.456v-.57q.85506.02856,1.71012.057t1.65311.0285q.71305,0,1.19709-.0285Q120.74622,10.842,121.17375,10.81358Zm-20.06538,0v.57a1.53148,1.53148,0,0,0-.96907.342.98188.98188,0,0,0-.285.76956,5.51915,5.51915,0,0,0,.285,1.28258l4.4178,13.19641-.74105.82656,3.87626-12.05633.42754.71255L103.474,31.107H102.505L96.34843,13.20775a2.63934,2.63934,0,0,0-.912-1.4251,2.037,2.037,0,0,0-.99758-.399v-.57q.684.02856,1.62462.057t1.82412.0285q1.02607,0,1.85273-.0285Q100.59533,10.842,101.10837,10.81358Zm22.10327,0q.655.02856,1.68161.057,1.05357.02855,2.08065.0285,1.36809,0,2.59367-.0285,1.25358-.02856,1.76713-.02851a11.08617,11.08617,0,0,1,4.01878.62705,4.90554,4.90554,0,0,1,2.39417,1.76712,4.28985,4.28985,0,0,1,.79805,2.56518,5.42755,5.42755,0,0,1-.37053,1.88112,4.7677,4.7677,0,0,1-1.22559,1.82413,6.84784,6.84784,0,0,1-2.39416,1.3681,11.57033,11.57033,0,0,1-3.84776.54153h-2.73619v-.57h2.45117a5.50946,5.50946,0,0,0,2.90719-.627,3.15669,3.15669,0,0,0,1.3681-1.71012,7.37665,7.37665,0,0,0,.37053-2.39416,5.49259,5.49259,0,0,0-.96907-3.47724,4.00648,4.00648,0,0,0-3.36323-1.25409,2.06828,2.06828,0,0,0-1.62462.48453,3.53223,3.53223,0,0,0-.37052,1.96664v14.137a5.18768,5.18768,0,0,0,.171,1.5391,1.02564,1.02564,0,0,0,.65554.684,5.53489,5.53489,0,0,0,1.42511.228v.57q-.684-.057-1.73863-.057-1.02606-.02856-2.10914-.0285-1.19709,0-2.25166.0285-1.02606,0-1.68161.057v-.57a5.65917,5.65917,0,0,0,1.4536-.228.95321.95321,0,0,0,.627-.684,5.18768,5.18768,0,0,0,.171-1.5391v-14.137a5.01768,5.01768,0,0,0-.171-1.53911.95443.95443,0,0,0-.65554-.684,4.26463,4.26463,0,0,0-1.4251-.228Zm4.81683,10.1182q1.45359.057,2.33717.14251.88252.057,1.48209.114.59854.057,1.11158.14251a5.85419,5.85419,0,0,1,3.10671,1.14007,4.56681,4.56681,0,0,1,1.36811,2.62218l.71254,2.90721a6.71635,6.71635,0,0,0,.54154,1.73862,1.00593,1.00593,0,0,0,.91206.513,1.28676,1.28676,0,0,0,.741-.25652,4.59478,4.59478,0,0,0,.65556-.684l.399.31352a5.34878,5.34878,0,0,1-1.36811,1.33959,3.69363,3.69363,0,0,1-1.90962.42753,3.54683,3.54683,0,0,1-2.10915-.627,4.015,4.015,0,0,1-1.22558-2.45117l-.57-2.8502a16.5329,16.5329,0,0,0-.57-2.10915,3.33414,3.33414,0,0,0-.88357-1.42509,2.24,2.24,0,0,0-1.5961-.513h-3.07822Zm29.66444-10.1182q-.113,1.083-.171,2.10915-.02749.99752-.02851,1.5391c0,.36106.01018.70309.02851,1.02607q.029.48449.057.79806h-.65554a11.08878,11.08878,0,0,0-.627-2.8787,2.61664,2.61664,0,0,0-1.2256-1.4821,4.57883,4.57883,0,0,0-2.25164-.456h-1.96665a4.406,4.406,0,0,0-1.39659.171.94312.94312,0,0,0-.627.627,4.48249,4.48249,0,0,0-.171,1.4536v14.365a4.64214,4.64214,0,0,0,.171,1.4536,1.02775,1.02775,0,0,0,.627.65555,5.23833,5.23833,0,0,0,1.39659.14251h1.85264a5.3873,5.3873,0,0,0,2.56517-.513,3.19832,3.19832,0,0,0,1.45361-1.68161,11.87947,11.87947,0,0,0,.76954-3.19222h.65555q-.08552.8265-.08551,2.16615,0,.57.0285,1.65311.058,1.083.171,2.22315-1.45359-.057-3.27772-.057-1.82312-.02856-3.24923-.0285h-1.68161q-1.02606,0-2.22316.0285-1.16806,0-2.39415.0285-1.1971,0-2.30867.0285v-.57a5.64333,5.64333,0,0,0,1.4536-.228.94935.94935,0,0,0,.627-.684,5.18762,5.18762,0,0,0,.171-1.5391v-14.137a5.01761,5.01761,0,0,0-.171-1.53911.95263.95263,0,0,0-.65555-.684,4.25971,4.25971,0,0,0-1.4251-.228v-.57q1.11158.02856,2.30867.057,1.22608,0,2.39415.0285h6.869Q156.38284,10.87053,157.69291,10.81358Zm-4.73132,9.74767v.57h-5.15887v-.57Zm.82655-3.76226q-.113,1.62462-.114,2.47968.029.855.0285,1.5676,0,.71261.02851,1.56761.029.85506.14251,2.47967h-.65555a16.4055,16.4055,0,0,0-.37052-1.79562,2.81368,2.81368,0,0,0-.82657-1.4251,2.53565,2.53565,0,0,0-1.79562-.54154v-.57a2.286,2.286,0,0,0,2.25167-1.33959,4.82587,4.82587,0,0,0,.399-1.22558q.14352-.6555.25652-1.19709Zm24.19511-5.98541q-.113,1.19709-.171,2.33716-.02749,1.11158-.0285,1.71012,0,.6555.0285,1.25409.029.59853.057,1.02607h-.65554a14.71266,14.71266,0,0,0-.76955-3.36324,3.33736,3.33736,0,0,0-1.3396-1.76712,4.88538,4.88538,0,0,0-2.53666-.54153h-1.2256V27.71525a5.52542,5.52542,0,0,0,.19951,1.71011,1.29045,1.29045,0,0,0,.85508.76956,9.70317,9.70317,0,0,0,1.88112.228v.57q-.797-.057-2.05214-.057-1.2536-.02856-2.56518-.0285-1.36809,0-2.59368.0285-1.19708,0-1.93813.057v-.57a9.13921,9.13921,0,0,0,1.85262-.228,1.286,1.286,0,0,0,.85506-.76956,4.843,4.843,0,0,0,.228-1.71011V11.46913h-1.25408a4.91791,4.91791,0,0,0-2.50817.54153,3.29435,3.29435,0,0,0-1.36809,1.76712,16.18688,16.18688,0,0,0-.74105,3.36324h-.65554a7.79078,7.79078,0,0,0,.057-1.02607q.029-.59854.0285-1.25409,0-.59854-.057-1.71012-.02749-1.14012-.14251-2.33716,1.22608.02856,2.67917.057,1.45362.02855,2.93571.0285h5.32987q1.4536,0,2.93569-.0285Q176.78669,10.842,177.98325,10.81358Zm12.63961-.399a9.58294,9.58294,0,0,1,4.90234,1.22559,8.27385,8.27385,0,0,1,3.30622,3.53424A12.08075,12.08075,0,0,1,200,20.73226a12.34176,12.34176,0,0,1-1.19708,5.58639,9.0982,9.0982,0,0,1-3.33473,3.73376,8.98544,8.98544,0,0,1-4.87383,1.33959,9.63711,9.63711,0,0,1-4.93085-1.22558,8.31641,8.31641,0,0,1-3.27773-3.53425,12.17821,12.17821,0,0,1-1.16857-5.55788,12.34165,12.34165,0,0,1,1.19708-5.58639,9.36023,9.36023,0,0,1,3.33473-3.73375A8.89277,8.89277,0,0,1,190.62286,10.41455Zm-.114.513a4.25766,4.25766,0,0,0-3.07822,1.28259,8.36348,8.36348,0,0,0-2.02364,3.53424,17.3007,17.3007,0,0,0-.71255,5.21586,15.77462,15.77462,0,0,0,.79805,5.27287,8.26917,8.26917,0,0,0,2.16616,3.44873,4.51765,4.51765,0,0,0,3.04971,1.19709,4.16606,4.16606,0,0,0,3.04971-1.2826,8.385,8.385,0,0,0,2.02363-3.53424,16.87115,16.87115,0,0,0,.74105-5.21586,15.143,15.143,0,0,0-.82655-5.27286,8.04676,8.04676,0,0,0-2.16616-3.42024A4.36166,4.36166,0,0,0,190.50886,10.92759Z" transform="translate(0 -6)"/>
  <path class="cls-5" d="M59.8833,45V38.5752h.7471v5.748h2.8344V45Zm11.7144,0-.7998-2.0435H68.2227L67.4316,45h-.7558l2.54-6.4512h.6284L72.3711,45Zm-1.0328-2.7158-.747-1.9907q-.145-.378-.2989-.9273a8.32059,8.32059,0,0,1-.2768.9273l-.7559,1.9907ZM81.8618,45h-.7383l-1.2964-4.3022q-.09225-.28575-.2065-.7207a4.18886,4.18886,0,0,1-.1186-.523,10.00184,10.00184,0,0,1-.3077,1.27L77.9375,45h-.7383l-1.7095-6.4248h.7911l1.0151,3.9683a14.74633,14.74633,0,0,1,.3076,1.5117,10.91289,10.91289,0,0,1,.3516-1.5733l1.1513-3.9067h.7911l1.2085,3.9419a11.991,11.991,0,0,1,.3559,1.5381,13.17618,13.17618,0,0,1,.3164-1.5205l1.0108-3.9595h.791Zm7.3594-3.2124,1.7139-3.2124h.8086l-2.1446,3.9331V45h-.7558V42.5435l-2.1402-3.9683h.8174ZM99.213,45H95.6313V38.5752H99.213v.6636H96.3784v2.0698H99.042v.6592H96.3784V44.332H99.213Zm5.175-2.6719V45h-.747V38.5752h1.762a2.7646,2.7646,0,0,1,1.745.4526,1.63813,1.63813,0,0,1,.567,1.3623,1.70671,1.70671,0,0,1-1.292,1.7227L108.167,45h-.883l-1.555-2.6719Zm0-.6416h1.024a1.77726,1.77726,0,0,0,1.16-.312,1.17619,1.17619,0,0,0,.369-.9448,1.06978,1.06978,0,0,0-.378-.9185,2.02379,2.02379,0,0,0-1.204-.2812h-.971Zm14.091-1.8325a1.147,1.147,0,0,0,.158.5801,3.52345,3.52345,0,0,0,.54.6592,2.86187,2.86187,0,0,0,.787-.6065,1.00971,1.00971,0,0,0,.224-.646.711.711,0,0,0-.229-.5493.83141.83141,0,0,0-.602-.2153.94543.94543,0,0,0-.637.2109A.71429.71429,0,0,0,118.479,39.854Zm.681,4.5791a2.42154,2.42154,0,0,0,1.757-.6768l-1.92-1.8632a4.16729,4.16729,0,0,0-.69.4965,1.195,1.195,0,0,0-.395.9273,1.04123,1.04123,0,0,0,.338.8174A1.33667,1.33667,0,0,0,119.16,44.4331Zm-2.004-1.0986a1.73738,1.73738,0,0,1,.303-1.0108,3.33206,3.33206,0,0,1,1.099-.8877,5.5248,5.5248,0,0,1-.51-.6328,2.23617,2.23617,0,0,1-.211-.4482,1.48582,1.48582,0,0,1-.079-.4834,1.28147,1.28147,0,0,1,.43-1.0283,1.78806,1.78806,0,0,1,1.2-.3692,1.6116,1.6116,0,0,1,1.121.3692,1.2967,1.2967,0,0,1,.408,1.0195,1.42361,1.42361,0,0,1-.298.8701,3.42443,3.42443,0,0,1-.989.8042l1.788,1.7183a2.08717,2.08717,0,0,0,.392-.6372,5.42728,5.42728,0,0,0,.25-.8042h.738a4.19023,4.19023,0,0,1-.901,1.9072L123.211,45h-1.006l-.813-.7822a3.12126,3.12126,0,0,1-2.25.8701,2.13307,2.13307,0,0,1-1.468-.4658A1.64456,1.64456,0,0,1,117.156,43.3345ZM136.493,45l-.8-2.0435h-2.575L132.327,45h-.756l2.54-6.4512h.629L137.267,45Zm-1.033-2.7158-.747-1.9907q-.144-.378-.298-.9273a8.47179,8.47179,0,0,1-.277.9273l-.756,1.9907ZM143.127,45h-.747V39.2388h-2.034v-.6636h4.816v.6636h-2.035Zm7.984,0h-.747V39.2388h-2.035v-.6636h4.817v.6636h-2.035Zm11.582-3.2212a3.52812,3.52812,0,0,1-.782,2.4258,2.73464,2.73464,0,0,1-2.166.8833,2.786,2.786,0,0,1-2.193-.8657,3.57974,3.57974,0,0,1-.769-2.4522,3.51584,3.51584,0,0,1,.773-2.4302,2.79344,2.79344,0,0,1,2.197-.8657,2.73937,2.73937,0,0,1,2.163.8789A3.536,3.536,0,0,1,162.693,41.7788Zm-5.119,0a3.068,3.068,0,0,0,.553,1.9819,1.98479,1.98479,0,0,0,1.618.6724,1.95118,1.95118,0,0,0,1.612-.6724,3.08707,3.08707,0,0,0,.545-1.9819,3.04428,3.04428,0,0,0-.545-1.9643,1.93479,1.93479,0,0,0-1.604-.6724,1.989,1.989,0,0,0-1.626.6767A3.01816,3.01816,0,0,0,157.574,41.7788Zm10.303.5493V45h-.747V38.5752h1.763a2.76134,2.76134,0,0,1,1.744.4526,1.6381,1.6381,0,0,1,.567,1.3623,1.70671,1.70671,0,0,1-1.292,1.7227L171.657,45h-.884l-1.555-2.6719Zm0-.6416h1.024a1.78036,1.78036,0,0,0,1.161-.312,1.17619,1.17619,0,0,0,.369-.9448,1.06978,1.06978,0,0,0-.378-.9185,2.02584,2.02584,0,0,0-1.204-.2812h-.972ZM180.712,45h-.852l-3.511-5.3921h-.036q.0705.9492.071,1.7402V45h-.69V38.5752h.844l3.502,5.3701h.035q-.009-.11865-.039-.7602-.0315-.64605-.022-.9229v-3.687h.698Zm8.349,0h-3.582V38.5752h3.582v.6636h-2.835v2.0698h2.663v.6592h-2.663V44.332h2.835Zm6.063-3.2124,1.713-3.2124h.809l-2.145,3.9331V45h-.755V42.5435l-2.141-3.9683h.818Z" transform="translate(0 -6)"/>
</svg>
